<svg xmlns="http://www.w3.org/2000/svg" width="24" height="24" viewBox="0 0 24 24" fill="#55c500">
  <path d="M3.57 14.67l1.38-1.38c.79-.79.79-2.07 0-2.86s-2.07-.79-2.86 0L.71 11.81c-.79.79-.79 2.07 0 2.86l1.38 1.38c.79.79 2.07.79 2.86 0 .79-.79.79-2.07 0-2.86z"/>
  <path d="M10.43 14.67l1.38-1.38c.79-.79.79-2.07 0-2.86s-2.07-.79-2.86 0L7.57 11.81c-.79.79-.79 2.07 0 2.86l1.38 1.38c.79.79 2.07.79 2.86 0 .79-.79.79-2.07 0-2.86z"/>
  <path d="M17.29 14.67l1.38-1.38c.79-.79.79-2.07 0-2.86s-2.07-.79-2.86 0l-1.38 1.38c-.79.79-.79 2.07 0 2.86l1.38 1.38c.79.79 2.07.79 2.86 0 .79-.79.79-2.07 0-2.86z"/>
  <path d="M6.0 7.81l1.38-1.38c.79-.79.79-2.07 0-2.86S5.31 2.78 4.52 3.57L3.14 4.95c-.79.79-.79 2.07 0 2.86L4.52 9.19c.79.79 2.07.79 2.86 0 .79-.79.79-2.07 0-2.86z"/>
  <path d="M12.86 7.81l1.38-1.38c.79-.79.79-2.07 0-2.86s-2.07-.79-2.86 0L10 4.95c-.79.79-.79 2.07 0 2.86l1.38 1.38c.79.79 2.07.79 2.86 0 .79-.79.79-2.07 0-2.86z"/>
  <path d="M19.72 7.81l1.38-1.38c.79-.79.79-2.07 0-2.86s-2.07-.79-2.86 0L16.86 4.95c-.79.79-.79 2.07 0 2.86l1.38 1.38c.79.79 2.07.79 2.86 0 .79-.79.79-2.07 0-2.86z"/>
  <path d="M8.86 21.52l1.38-1.38c.79-.79.79-2.07 0-2.86s-2.07-.79-2.86 0L5.0 18.66c-.79.79-.79 2.07 0 2.86l1.38 1.38c.79.79 2.07.79 2.86 0 .79-.79.79-2.07 0-2.86z"/>
  <path d="M15.72 21.52l1.38-1.38c.79-.79.79-2.07 0-2.86s-2.07-.79-2.86 0l-1.38 1.38c-.79.79-.79 2.07 0 2.86l1.38 1.38c.79.79 2.07.79 2.86 0 .79-.79.79-2.07 0-2.86z"/>
</svg>